{
  "metadata": {
    "title": "01-simple-rock-beat",
    "artist": null,
    "bpm": 105,
    "duration": 11.45,
    "difficulty": "easy"
  },
  "audio": {
    "backingTrack": null
  }
,
  "notes": [
    { "time": 256, "lane": 8, "midiNote": 36, "velocity": 127 },
    { "time": 256, "lane": 6, "midiNote": 42, "velocity": 89 },
    { "time": 320, "lane": 6, "midiNote": 42, "velocity": 89 },
    { "time": 384, "lane": 6, "midiNote": 38, "velocity": 127 },
    { "time": 384, "lane": 6, "midiNote": 42, "velocity": 89 },
    { "time": 448, "lane": 6, "midiNote": 42, "velocity": 89 },
    { "time": 512, "lane": 8, "midiNote": 36, "velocity": 127 },
    { "time": 512, "lane": 6, "midiNote": 42, "velocity": 89 },
    { "time": 576, "lane": 6, "midiNote": 42, "velocity": 89 },
    { "time": 640, "lane": 7, "midiNote": 38, "velocity": 127 },
    { "time": 640, "lane": 6, "midiNote": 42, "velocity": 89 },
    { "time": 704, "lane": 6, "midiNote": 42, "velocity": 89 },
    { "time": 768, "lane": 8, "midiNote": 36, "velocity": 127 },
    { "time": 768, "lane": 6, "midiNote": 42, "velocity": 89 },
    { "time": 832, "lane": 6, "midiNote": 42, "velocity": 89 },
    { "time": 896, "lane": 7, "midiNote": 38, "velocity": 127 },
    { "time": 896, "lane": 6, "midiNote": 42, "velocity": 89 },
    { "time": 960, "lane": 6, "midiNote": 42, "velocity": 89 },
    { "time": 1024, "lane": 8, "midiNote": 36, "velocity": 127 },
    { "time": 1024, "lane": 6, "midiNote": 42, "velocity": 89 },
    { "time": 1088, "lane": 6, "midiNote": 42, "velocity": 89 },
    { "time": 1152, "lane": 7, "midiNote": 38, "velocity": 127 },
    { "time": 1152, "lane": 6, "midiNote": 42, "velocity": 89 },
    { "time": 1216, "lane": 6, "midiNote": 42, "velocity": 89 },
    { "time": 1280, "lane": 8, "midiNote": 36, "velocity": 127 },
    { "time": 1280, "lane": 6, "midiNote": 42, "velocity": 89 },
    { "time": 1344, "lane": 6, "midiNote": 42, "velocity": 89 },
    { "time": 1408, "lane": 6, "midiNote": 38, "velocity": 127 },
    { "time": 1408, "lane": 6, "midiNote": 42, "velocity": 89 },
    { "time": 1472, "lane": 6, "midiNote": 42, "velocity": 89 },
    { "time": 1536, "lane": 8, "midiNote": 36, "velocity": 127 },
    { "time": 1536, "lane": 6, "midiNote": 42, "velocity": 89 },
    { "time": 1600, "lane": 6, "midiNote": 42, "velocity": 89 },
    { "time": 1664, "lane": 7, "midiNote": 38, "velocity": 127 },
    { "time": 1664, "lane": 6, "midiNote": 42, "velocity": 89 },
    { "time": 1728, "lane": 6, "midiNote": 42, "velocity": 89 },
    { "time": 1792, "lane": 8, "midiNote": 36, "velocity": 127 },
    { "time": 1792, "lane": 6, "midiNote": 42, "velocity": 89 },
    { "time": 1856, "lane": 6, "midiNote": 42, "velocity": 89 },
    { "time": 1920, "lane": 7, "midiNote": 38, "velocity": 127 },
    { "time": 1920, "lane": 6, "midiNote": 42, "velocity": 89 },
    { "time": 1984, "lane": 6, "midiNote": 42, "velocity": 89 },
    { "time": 2048, "lane": 8, "midiNote": 36, "velocity": 127 },
    { "time": 2048, "lane": 6, "midiNote": 42, "velocity": 89 },
    { "time": 2112, "lane": 6, "midiNote": 42, "velocity": 89 },
    { "time": 2176, "lane": 7, "midiNote": 38, "velocity": 127 },
    { "time": 2176, "lane": 6, "midiNote": 42, "velocity": 89 },
    { "time": 2240, "lane": 6, "midiNote": 42, "velocity": 89 },
    { "time": 2304, "lane": 8, "midiNote": 36, "velocity": 127 },
    { "time": 2304, "lane": 6, "midiNote": 42, "velocity": 89 },
    { "time": 2368, "lane": 6, "midiNote": 42, "velocity": 89 },
    { "time": 2432, "lane": 6, "midiNote": 38, "velocity": 127 },
    { "time": 2432, "lane": 6, "midiNote": 42, "velocity": 89 },
    { "time": 2496, "lane": 6, "midiNote": 42, "velocity": 89 },
    { "time": 2560, "lane": 8, "midiNote": 36, "velocity": 127 },
    { "time": 2560, "lane": 6, "midiNote": 42, "velocity": 89 },
    { "time": 2624, "lane": 6, "midiNote": 42, "velocity": 89 },
    { "time": 2688, "lane": 7, "midiNote": 38, "velocity": 127 },
    { "time": 2688, "lane": 6, "midiNote": 42, "velocity": 89 },
    { "time": 2752, "lane": 6, "midiNote": 42, "velocity": 89 },
    { "time": 2816, "lane": 8, "midiNote": 36, "velocity": 127 },
    { "time": 2816, "lane": 6, "midiNote": 42, "velocity": 89 },
    { "time": 2880, "lane": 6, "midiNote": 42, "velocity": 89 },
    { "time": 2944, "lane": 7, "midiNote": 38, "velocity": 127 },
    { "time": 2944, "lane": 6, "midiNote": 42, "velocity": 89 },
    { "time": 3008, "lane": 6, "midiNote": 42, "velocity": 89 },
    { "time": 3072, "lane": 8, "midiNote": 36, "velocity": 127 },
    { "time": 3072, "lane": 6, "midiNote": 42, "velocity": 89 },
    { "time": 3136, "lane": 6, "midiNote": 42, "velocity": 89 },
    { "time": 3200, "lane": 7, "midiNote": 38, "velocity": 127 },
    { "time": 3200, "lane": 6, "midiNote": 42, "velocity": 89 },
    { "time": 3264, "lane": 6, "midiNote": 42, "velocity": 89 },
    { "time": 3328, "lane": 8, "midiNote": 36, "velocity": 127 },
    { "time": 3328, "lane": 6, "midiNote": 42, "velocity": 89 },
    { "time": 3392, "lane": 6, "midiNote": 42, "velocity": 89 },
    { "time": 3456, "lane": 6, "midiNote": 38, "velocity": 127 },
    { "time": 3456, "lane": 6, "midiNote": 42, "velocity": 89 },
    { "time": 3520, "lane": 6, "midiNote": 42, "velocity": 89 },
    { "time": 3584, "lane": 8, "midiNote": 36, "velocity": 127 },
    { "time": 3584, "lane": 6, "midiNote": 42, "velocity": 89 },
    { "time": 3648, "lane": 6, "midiNote": 42, "velocity": 89 },
    { "time": 3712, "lane": 7, "midiNote": 38, "velocity": 127 },
    { "time": 3712, "lane": 6, "midiNote": 42, "velocity": 89 },
    { "time": 3776, "lane": 6, "midiNote": 42, "velocity": 89 },
    { "time": 3840, "lane": 8, "midiNote": 36, "velocity": 127 },
    { "time": 3840, "lane": 6, "midiNote": 42, "velocity": 89 },
    { "time": 3904, "lane": 6, "midiNote": 42, "velocity": 89 },
    { "time": 3968, "lane": 7, "midiNote": 38, "velocity": 127 },
    { "time": 3968, "lane": 6, "midiNote": 42, "velocity": 89 },
    { "time": 4032, "lane": 6, "midiNote": 42, "velocity": 89 },
    { "time": 4096, "lane": 8, "midiNote": 36, "velocity": 127 },
    { "time": 4096, "lane": 6, "midiNote": 42, "velocity": 89 },
    { "time": 4160, "lane": 6, "midiNote": 42, "velocity": 89 },
    { "time": 4224, "lane": 7, "midiNote": 38, "velocity": 127 },
    { "time": 4224, "lane": 6, "midiNote": 42, "velocity": 89 },
    { "time": 4288, "lane": 6, "midiNote": 42, "velocity": 89 },
    { "time": 4352, "lane": 8, "midiNote": 36, "velocity": 127 },
    { "time": 4352, "lane": 6, "midiNote": 42, "velocity": 89 },
    { "time": 4416, "lane": 6, "midiNote": 42, "velocity": 89 },
    { "time": 4480, "lane": 6, "midiNote": 38, "velocity": 127 },
    { "time": 4480, "lane": 6, "midiNote": 42, "velocity": 89 },
    { "time": 4544, "lane": 6, "midiNote": 42, "velocity": 89 },
    { "time": 4608, "lane": 8, "midiNote": 36, "velocity": 127 },
    { "time": 4608, "lane": 6, "midiNote": 42, "velocity": 89 },
    { "time": 4672, "lane": 6, "midiNote": 42, "velocity": 89 },
    { "time": 4736, "lane": 7, "midiNote": 38, "velocity": 127 },
    { "time": 4736, "lane": 6, "midiNote": 42, "velocity": 89 },
    { "time": 4800, "lane": 6, "midiNote": 42, "velocity": 89 },
    { "time": 4864, "lane": 8, "midiNote": 36, "velocity": 127 },
    { "time": 4864, "lane": 6, "midiNote": 42, "velocity": 89 },
    { "time": 4928, "lane": 6, "midiNote": 42, "velocity": 89 },
    { "time": 4992, "lane": 7, "midiNote": 38, "velocity": 127 },
    { "time": 4992, "lane": 6, "midiNote": 42, "velocity": 89 },
    { "time": 5056, "lane": 6, "midiNote": 42, "velocity": 89 }
  ]
}